<svg style="height: 483px; width: 483px;" xmlns="http://www.w3.org/2000/svg" viewBox="0 0 512 512"><g class="" style="" transform="translate(-8,-4)"><g><path d="M386.68798828125 487.75L267.4519958496094 432.3269958496094C259.5539855957031 428.65399169921875 256.1180114746094 419.2619934082031 259.7919921875 411.35101318359375L344.1659851074219 229.8280029296875C347.8330078125 221.9239959716797 357.2359924316406 218.49400329589844 365.1289978027344 222.16099548339844L484.3689880371094 277.5950012207031C492.2690124511719 281.26800537109375 495.6990051269531 290.6600036621094 492.0249938964844 298.5589904785156L407.6549987792969 480.0830078125C403.97698974609375 487.98699951171875 394.5790100097656 491.4169921875 386.68701171875 487.75Z" class="selected" fill="#a69f9d" fill-opacity="1"></path><path d="M98.94999694824219 467.94500732421875L19.790000915527344 284.0899963378906C16.341999053955078 276.0830078125 20.045000076293945 266.7879943847656 28.040000915527344 263.34600830078125L67.23600006103516 246.4739990234375L116.21099853515625 430.51800537109375C120.90499877929688 448.1059875488281 138.96600341796875 458.59600830078125 156.5709991455078 453.9079895019531L195.60299682617188 443.5220031738281L119.69599914550781 476.2080078125C111.68900299072266 479.6510009765625 102.4000015258789 475.9530029296875 98.9520034790039 467.9460144042969Z" class="" fill="#c4d3ca" fill-opacity="1"></path><path d="M132.83999633789062 426.0849914550781L81.36199951171875 232.63800048828125C79.12200164794922 224.21800231933594 84.14199829101562 215.55999755859375 92.552001953125 213.3260040283203L126.58499908447266 204.2740020751953L122.48699951171875 234.73899841308594C120.06500244140625 252.77499389648438 132.71099853515625 269.3909912109375 150.77200317382812 271.82598876953125L230.60000610351562 282.5840148925781L198.10299682617188 392.0509948730469C194.75799560546875 403.33099365234375 197.73300170898438 414.9989929199219 204.968994140625 423.2309875488281L152.1490020751953 437.281005859375C143.72900390625 439.52099609375 135.07899475097656 434.510986328125 132.83900451660156 426.0849914550781Z" class="" fill="#b3ceea" fill-opacity="1"></path><path d="M241.26800537109375 421.32501220703125L225.2480010986328 416.56500244140625C216.88800048828125 414.07501220703125 212.1280059814453 405.2980041503906 214.60400390625 396.93798828125L271.5740051269531 205.03799438476562C274.0580139160156 196.67799377441406 282.85400390625 191.91799926757812 291.1960144042969 194.38800048828125L340.2690124511719 208.9709930419922L340.2770080566406 208.96600341796875L340.3970031738281 209.00999450683594L340.2640075683594 208.9759979248047C335.1730041503906 212.3350067138672 331.1199951171875 217.04600524902344 328.5589904785156 222.58099365234375L244.1790008544922 404.1109924316406C241.67999267578125 409.4849853515625 240.67300415039062 415.4320068359375 241.26400756835938 421.3290100097656Z" class="" fill="#f8e7b9" fill-opacity="1"></path><path d="M235.56100463867188 265.8949890136719L153.0749969482422 254.7779998779297C144.44200134277344 253.61199951171875 138.37100219726562 245.6580047607422 139.53700256347656 237.02000427246094L166.26699829101562 38.630001068115234C167.427001953125 29.996999740600586 175.39199829101562 23.93199920654297 184.0070037841797 25.091999053955078L314.3340148925781 42.654998779296875C322.96099853515625 43.82099914550781 329.0260009765625 51.779998779296875 327.8659973144531 60.40700149536133L311.4200134277344 182.4600067138672L296.0899963378906 177.9080047607422C278.62298583984375 172.71099853515625 260.2640075683594 182.69200134277344 255.08599853515625 200.13999938964844L235.56100463867188 265.8949890136719Z" class="" fill="#eb9f82" fill-opacity="1"></path><path d="M230.37100219726562 234.43499755859375C235.04100036621094 231.3800048828125 237.84500122070312 226.9969940185547 238.79100036621094 221.2899932861328C239.7270050048828 215.65699768066406 238.4340057373047 210.67300415039062 234.9250030517578 206.34500122070312C231.4149932861328 201.93099975585938 226.53500366210938 199.2050018310547 220.2689971923828 198.16700744628906C213.9250030517578 197.11000061035156 208.33900451660156 198.093994140625 203.5189971923828 201.1230010986328C198.6929931640625 204.1529998779297 195.82699584960938 208.43899536132812 194.9040069580078 213.9929962158203C194.00599670410156 219.37899780273438 195.32899475097656 224.41299438476562 198.87399291992188 229.0749969482422C202.43899536132812 233.57899475097656 207.3990020751953 236.36000061035156 213.73699951171875 237.4149932861328C220.08700561523438 238.4720001220703 225.6300048828125 237.4770050048828 230.37100219726562 234.43499755859375Z" class="" fill="#ffffff" fill-opacity="1"></path><path d="M256.3489990234375 153.19200134277344C261.0419921875 150.46600341796875 265.23699951171875 147.75799560546875 268.9469909667969 145.0749969482422C272.6499938964844 142.39100646972656 275.86199951171875 139.48899841308594 278.5820007324219 136.35000610351562C281.2879943847656 133.23899841308594 283.5539855957031 129.77099609375 285.31500244140625 126.04299926757812C287.07501220703125 122.3030014038086 288.3630065917969 118.01100158691406 289.1650085449219 113.1780014038086C290.427001953125 105.55799865722656 290.18499755859375 98.81999969482422 288.42999267578125 92.94400024414062C286.67999267578125 87.0739974975586 283.73699951171875 82.00399780273438 279.59698486328125 77.7239990234375C275.4620056152344 73.4540023803711 270.35699462890625 69.97100067138672 264.27899169921875 67.29399871826172C258.2090148925781 64.61000061035156 251.47500610351562 62.6609992980957 244.10499572753906 61.433998107910156C236.41299438476562 60.15399932861328 228.80499267578125 59.832000732421875 221.2899932861328 60.457000732421875C213.7740020751953 61.07099914550781 206.66000366210938 62.70399856567383 199.94400024414062 65.33699798583984L193.99400329589844 101.13899993896484C200.8070068359375 96.88899993896484 207.76400756835938 94.03500366210938 214.8489990234375 92.5719985961914C221.93899536132812 91.09700012207031 228.5749969482422 90.87200164794922 234.76199340820312 91.90399932861328C256.22900390625 95.99600219726562 254.20199584960938 116.802001953125 243.52200317382812 125.93399810791016C237.8699951171875 130.40699768066406 232.18800354003906 134.73599243164062 227.5800018310547 137.2790069580078C217.10000610351562 143.1929931640625 199.88999938964844 160.4040069580078 205.03799438476562 182.4239959716797L236.32200622558594 187.62600708007812C229.21200561523438 169.86900329589844 247.98500061035156 158.16400146484375 256.3500061035156 153.19200134277344Z" class="" fill="#ffffff" fill-opacity="1"></path></g></g></svg>